# xmcd
#
# Track frame offsets: 
#        150
#        13517
#        27242
#        39114
#        52364
#        63906
#        74110
#        89737
#        100514
#        114752
#        130024
#        144489
#        153673
#        169615
#        183479
#        199963
#        211387
#        223422
#
# Disc length: 3122 seconds
#
# Revision: 2
# Processed by: cddbd v1.5.2PL0 Copyright (c) Steve Scherf et al.
# Submitted via: ExactAudioCopy v1.0b3
#
DISCID=0b0c3012
DTITLE=Billie Holiday - Billie Holiday
DYEAR=1996
DGENRE=Jazz
TTITLE0=Love for sale
TTITLE1=The mood that I'm in
TTITLE2=Me Myself and I
TTITLE3=You go to my head
TTITLE4=How could you
TTITLE5=Trav'lin all alone
TTITLE6=I don't stand a ghost of a chance
TTITLE7=Detour ahead
TTITLE8=God bless the child
TTITLE9=It's like reaching for the moon
TTITLE10=This year's kisses
TTITLE11=What a little moonlight can do
TTITLE12=Willow weep for me
TTITLE13=Easy living
TTITLE14=I cover the waterfront
TTITLE15=Nice work if you can get it
TTITLE16=No regrets
TTITLE17=Nobody's Business
EXTD=YEAR: 2001
EXTT0=
EXTT1=
EXTT2=
EXTT3=
EXTT4=
EXTT5=
EXTT6=
EXTT7=
EXTT8=
EXTT9=
EXTT10=
EXTT11=
EXTT12=
EXTT13=
EXTT14=
EXTT15=
EXTT16=
EXTT17=
PLAYORDER=
